<svg width="108" height="72" viewBox="0 0 108 72" fill="none" xmlns="http://www.w3.org/2000/svg">
<path id="Vector" d="M99.8979 71.329H8.03127C6.15707 71.329 4.35964 70.5845 3.03438 69.2592C1.70912 67.934 0.9646 66.1365 0.9646 64.2623L0.9646 34.5352H6.05554L7.20388 31.7557H9.77438L10.9198 34.5234H20.9368V32.4182L21.8319 34.5382H27.0318L27.9269 32.3828V34.5323H52.8163V29.986H53.2874C53.623 29.9978 53.7202 30.0273 53.7202 30.5867V34.5382H66.5963V33.4811C67.9124 34.1495 69.4642 34.5411 71.1101 34.5411L71.3898 34.5382H71.3751H76.7929L77.953 31.7704H80.5235L81.6571 34.5382H92.0981V31.9058L93.6763 34.5382H102.027V17.1542H93.7617V19.2064L92.6045 17.1542H84.1069V19.2064L83.0439 17.1542H71.5694C69.8312 17.0702 68.1001 17.4278 66.5374 18.1935L66.5992 18.167V17.1542H58.6845V18.167C57.7261 17.4128 56.5165 17.0517 55.3014 17.1571H55.319H26.3958L24.4554 21.6474L22.462 17.1571H13.3519V19.2094L12.3478 17.1571H4.57449L0.973433 25.4015V7.73488C0.973433 5.86068 1.71795 4.06325 3.04321 2.73799C4.36847 1.41273 6.1659 0.668213 8.0401 0.668213H99.9068C101.781 0.668213 103.578 1.41273 104.904 2.73799C106.229 4.06325 106.973 5.86068 106.973 7.73488V38.5927H101.458C101.366 38.5887 101.267 38.5868 101.161 38.5868C99.8832 38.5868 98.6966 38.9695 97.7073 39.6262L97.7308 39.6114V38.5927H89.5747C88.3004 38.5215 87.0395 38.8837 85.9972 39.6203L86.0149 39.6085V38.5897H71.4517V39.6085C70.2586 38.9383 68.9128 38.5874 67.5444 38.5897H67.4295H67.4354H57.8277V39.6085C56.5727 38.8038 55.083 38.4459 53.5995 38.5927L53.626 38.5897H42.8758L40.4143 41.2515L38.1117 38.5897H22.0527V55.9855H37.8114L40.3465 53.2825L42.7345 55.9855H52.4482V51.9133H53.8027C55.1052 51.9666 56.4045 51.749 57.6187 51.2744L57.5539 51.2979V55.9914H65.5628V51.4599H65.9485C66.4373 51.4599 66.4873 51.4775 66.4873 51.9722V55.9943H90.8261L91.1235 56.0002C92.5192 56.0002 93.8206 55.5821 94.9042 54.8666L94.8777 54.8813V55.9943H102.598L102.966 56.0002C104.412 56.0002 105.787 55.7028 107.035 55.164L106.968 55.1905V64.2653C106.968 66.1395 106.223 67.9369 104.898 69.2622C103.573 70.5874 101.775 71.3319 99.9009 71.3319L99.8979 71.329ZM63.1071 53.5475H60.1097V41.0778H66.9879C68.2301 40.9626 69.481 41.1716 70.6184 41.6843L70.5713 41.6667C71.4929 42.1731 72.1083 43.1389 72.1083 44.246L72.1024 44.4433V44.4344L72.1053 44.5463C72.1053 45.9773 71.2426 47.2081 70.0059 47.744L69.9824 47.7528C70.5742 47.9648 71.0689 48.327 71.4369 48.7952L71.4428 48.801C71.8577 49.4895 72.0317 50.2965 71.9375 51.0948L71.9404 51.0771V53.5445H68.9489V51.984C69.0938 51.1343 68.9231 50.2609 68.4689 49.5283L68.4778 49.543C68.167 49.3071 67.8115 49.1367 67.433 49.042C67.0544 48.9474 66.6606 48.9305 66.2753 48.9924L66.293 48.9895H63.1071V53.5445V53.5475ZM63.1071 43.6542V46.4543H66.7288C67.2402 46.5016 67.7549 46.41 68.2187 46.1893L68.201 46.1982C68.3903 46.0756 68.546 45.9077 68.6539 45.7098C68.7619 45.5118 68.8188 45.29 68.8193 45.0645L68.8164 44.9968C68.8328 44.7715 68.7841 44.5492 68.676 44.3508C68.5679 44.1524 68.4051 43.9893 68.2069 43.8809L68.201 43.8779C67.7529 43.6823 67.2631 43.6014 66.7759 43.6424H66.7877L63.1071 43.6542ZM36.5335 53.5445H24.7351V41.0778H36.719L40.3848 45.1647L44.1743 41.0778H53.6937C57.0739 41.0778 58.7169 42.4234 58.7169 45.1853C58.7169 47.9972 57.018 49.3634 53.5347 49.3634H49.81V53.5416H44.0183L40.3495 49.4223L36.5335 53.5445ZM46.842 42.4145L42.2663 47.3318L46.842 52.408V42.4145ZM27.706 48.4654V50.9446H35.0318L38.4179 47.2876L35.1614 43.6542H27.7031V45.9214H34.2457V48.4624L27.706 48.4654ZM49.81 43.6571V46.8312H53.6584C54.8362 46.8312 55.5134 46.2305 55.5134 45.1823C55.5134 44.1812 54.8833 43.6542 53.6908 43.6542L49.81 43.6571ZM102.922 53.5504H97.1684V50.871H102.898C103.327 50.9298 103.762 50.8177 104.108 50.5589L104.106 50.5618C104.216 50.4594 104.305 50.3351 104.365 50.1967C104.425 50.0583 104.456 49.9089 104.456 49.758V49.7109C104.456 49.5619 104.423 49.4147 104.361 49.2795C104.298 49.1443 104.207 49.0243 104.094 48.9277C103.791 48.7039 103.413 48.6049 103.04 48.6509H103.046L102.495 48.6332C99.8037 48.5625 96.7562 48.4801 96.7562 44.7907C96.7562 42.9946 97.881 41.0778 101.029 41.0778H106.968V43.7337H101.535C101.115 43.688 100.692 43.7723 100.322 43.9751L100.334 43.9692C100.189 44.0651 100.072 44.1982 99.9957 44.3546C99.9196 44.5111 99.8868 44.685 99.9009 44.8584V44.8555V44.8879C99.9009 45.0863 99.9635 45.2796 100.08 45.4404C100.196 45.6011 100.36 45.721 100.549 45.783L100.555 45.7859C100.928 45.9023 101.319 45.9502 101.709 45.9273H101.7L103.316 45.9685C104.535 45.8459 105.753 46.2088 106.705 46.9784L106.697 46.9725C106.785 47.0432 106.863 47.1208 106.929 47.2052L106.932 47.2081L106.968 51.9545C106.472 52.5326 105.842 52.9801 105.133 53.2578C104.424 53.5355 103.658 53.635 102.901 53.5475L102.922 53.5504ZM91.2943 53.5504H85.4878V50.871H91.2648C91.697 50.9267 92.1342 50.815 92.4868 50.5589L92.4809 50.5618C92.5912 50.4592 92.6791 50.3347 92.7389 50.1964C92.7987 50.058 92.8292 49.9087 92.8283 49.758V49.7285C92.8288 49.5769 92.7966 49.427 92.7342 49.2888C92.6717 49.1506 92.5803 49.0275 92.4662 48.9277C92.1555 48.7082 91.7754 48.6098 91.3973 48.6509H91.4032L90.8555 48.6332C88.1731 48.5625 85.1286 48.4801 85.1286 44.7907C85.1286 42.9946 86.2475 41.0778 89.3892 41.0778H95.3605V43.7337H89.8957C89.479 43.6899 89.0589 43.7741 88.6914 43.9751L88.7032 43.9692C88.5485 44.0757 88.4254 44.2219 88.347 44.3925C88.2686 44.5631 88.2377 44.7517 88.2576 44.9384C88.2775 45.1251 88.3475 45.3029 88.4601 45.4532C88.5727 45.6034 88.7239 45.7204 88.8975 45.7918L88.9034 45.7948C89.2811 45.9129 89.6773 45.9608 90.0723 45.9361H90.0635L91.6682 45.9773C92.8935 45.8564 94.1173 46.22 95.0779 46.9902L95.069 46.9814C95.3931 47.3378 95.6394 47.7577 95.7925 48.2144C95.9456 48.6711 96.002 49.1546 95.9583 49.6343V49.6196C95.9671 52.2195 94.3918 53.5445 91.2854 53.5445L91.2943 53.5504ZM83.7035 53.5504H73.7513V41.0748H83.6947V43.6512H76.7252V45.9184H83.5327V48.4595H76.7252V50.9387L83.7035 50.9505V53.5416V53.5504ZM89.504 32.0972H83.4355L82.2754 29.3177H76.0862L74.9614 32.0972H71.4752C69.9096 32.1798 68.3679 31.6865 67.141 30.7104L67.1557 30.7192C66.5725 30.0761 66.1299 29.3184 65.8561 28.4945C65.5824 27.6707 65.4834 26.7987 65.5657 25.9345L65.5628 25.958C65.4847 25.0777 65.5876 24.1908 65.865 23.3517C66.1425 22.5127 66.5888 21.7393 67.1763 21.0791L67.1704 21.085C67.7885 20.5439 68.5114 20.136 69.2941 19.8867C70.0768 19.6375 70.9025 19.5522 71.7196 19.6363L71.696 19.6334H74.5816V22.2922H71.7549C71.3413 22.2383 70.9209 22.2766 70.5238 22.4044C70.1267 22.5322 69.7628 22.7463 69.4583 23.0313L69.4612 23.0283C68.8334 23.8355 68.5281 24.8471 68.6044 25.8668V25.852C68.5114 26.8998 68.8057 27.9453 69.4318 28.7906L69.4229 28.7788C70.0078 29.258 70.7574 29.4885 71.5105 29.4207H71.4988H72.8355L77.049 19.6157H81.5246L86.5684 31.3935V19.6157H91.1058L96.341 28.2959V19.6157H99.4033V32.0766H95.1515L89.4982 22.7192V32.0766L89.504 32.0972ZM79.2014 21.7387L77.1492 26.7089H81.2625L79.2014 21.7387ZM50.3488 32.0913H47.369V19.6245H54.2237C55.475 19.4952 56.7379 19.7078 57.8778 20.2399L57.8336 20.2223C58.291 20.4766 58.6724 20.8484 58.9384 21.2991C59.2044 21.7499 59.3455 22.2635 59.347 22.7869L59.3412 22.993V22.9842V23.0754C59.3414 23.7555 59.1454 24.4211 58.7766 24.9925C58.4079 25.5639 57.8821 26.0167 57.2624 26.2967L57.2388 26.3055C57.8307 26.5293 58.3283 26.8885 58.7081 27.3478L58.714 27.3537C59.137 28.0433 59.3106 28.8571 59.2057 29.6592L59.2087 29.6415V32.0884H56.2024L56.1906 30.516V30.2805C56.3002 29.5116 56.1299 28.7289 55.7107 28.0751L55.7195 28.0898C55.4073 27.8614 55.0531 27.6968 54.6772 27.6054C54.3013 27.5139 53.9111 27.4974 53.5288 27.5569L53.5465 27.5539H50.3518V32.0884L50.3488 32.0913ZM50.3488 22.2186V24.9864H53.9646C54.4755 25.0442 54.9921 24.9521 55.4515 24.7214L55.4368 24.7273C55.6249 24.612 55.7803 24.4506 55.8885 24.2584C55.9968 24.0662 56.0541 23.8496 56.0552 23.629L56.0522 23.5465C56.0672 23.3228 56.0163 23.1025 55.9059 22.9074C55.7955 22.7122 55.6304 22.5536 55.4309 22.4512L55.425 22.4483C54.9778 22.2531 54.4891 22.1722 54.0029 22.2127H54.0117L50.3488 22.2186ZM18.7962 32.0913H12.7424L11.597 29.3118H5.3901L4.23588 32.0913H0.996988L6.33527 19.6245H10.7608L15.8282 31.4229V19.6245H20.6894L24.5879 28.078L28.1713 19.6245H33.1327V32.0854H30.0704L30.0645 22.3334L25.745 32.0884H23.1304L18.7991 22.3187V32.0884L18.7962 32.0913ZM8.47882 21.7387L6.4501 26.7089H10.5193L8.47882 21.7387ZM64.0935 32.0884H61.0548V19.6245H64.0964V32.0854L64.0935 32.0884ZM45.2903 32.0884H35.3557V19.6245H45.3079V22.2157H38.3355V24.4623H45.1401V27.021H38.3296V29.512H45.302V32.0854L45.2903 32.0884Z" fill="#2B49E0"/>
</svg>
