<svg width="20" height="24" viewBox="0 0 20 24" fill="none" xmlns="http://www.w3.org/2000/svg">
<path id="Vector" d="M10.2 4.69925C10.122 4.70031 10.0445 4.68594 9.9721 4.65696C9.89966 4.62798 9.83367 4.58497 9.77791 4.5304C9.72215 4.47584 9.67773 4.41078 9.6472 4.33899C9.61667 4.26719 9.60063 4.19007 9.6 4.11205C9.6 1.84005 11.4816 5.4318e-05 13.7984 5.4318e-05C13.8764 -0.00100249 13.9539 0.0133709 14.0263 0.0423482C14.0987 0.0713255 14.1647 0.114335 14.2205 0.168904C14.2762 0.223473 14.3207 0.288525 14.3512 0.360321C14.3817 0.432116 14.3978 0.509239 14.3984 0.587254C14.3984 2.85925 12.5184 4.69925 10.2 4.69925ZM18.96 17.0689C19.192 17.2385 19.2672 17.5489 19.136 17.8017C17.024 21.9393 15.3392 24.0001 13.8 24.0001C13.0832 24.0001 12.3792 23.7729 11.6928 23.3313C11.1998 23.0158 10.6294 22.8424 10.0443 22.8299C9.45916 22.8175 8.88192 22.9666 8.376 23.2609C7.544 23.7489 6.752 24.0001 6 24.0001C3.736 24.0001 0 17.1729 0 13.4273C0 9.42726 2.1424 6.37765 5.4 6.37765C6.9328 6.37659 8.25547 6.60005 9.368 7.04805C9.8384 7.23685 10.3712 7.22405 10.8304 7.00805C11.7328 6.58245 12.9232 6.37765 14.3984 6.37765C16.2016 6.37765 17.7744 7.25765 19.08 8.96165C19.1277 9.02293 19.1624 9.09321 19.1822 9.16827C19.2021 9.24333 19.2065 9.32162 19.1953 9.39843C19.1841 9.47525 19.1575 9.549 19.117 9.61527C19.0766 9.68154 19.0232 9.73895 18.96 9.78405C17.5024 10.8561 16.8 12.0577 16.8 13.4273C16.8 14.7953 17.5024 15.9985 18.96 17.0689Z" fill="#B3B3B3"/>
</svg>
