<svg width="34" height="34" viewBox="0 0 34 34" fill="none" xmlns="http://www.w3.org/2000/svg">
<g id="property-1=Back 2">
<path id="vector" d="M9.53418 22.831V11.1704C9.53418 10.9692 9.60265 10.8007 9.7396 10.6647C9.87654 10.5287 10.0451 10.4607 10.2453 10.4607C10.4456 10.4607 10.6137 10.5287 10.7497 10.6647C10.8857 10.8007 10.9532 10.9688 10.9523 11.169V22.8296C10.9523 23.0307 10.8843 23.1993 10.7483 23.3353C10.6123 23.4704 10.4437 23.5379 10.2425 23.5379C10.0413 23.5379 9.87324 23.4704 9.73818 23.3353C9.60312 23.2003 9.5356 23.0317 9.5356 22.8296M22.678 22.3592L16.0735 17.9506C15.8978 17.8278 15.7703 17.6885 15.691 17.5327C15.6117 17.3768 15.572 17.1993 15.572 17C15.572 16.8007 15.6117 16.6232 15.691 16.4673C15.7703 16.3124 15.8978 16.1731 16.0735 16.0494L22.678 11.6407C22.7781 11.5652 22.8806 11.5156 22.9854 11.492C23.0903 11.4684 23.2022 11.4566 23.3212 11.4566C23.6262 11.4566 23.893 11.5614 24.1216 11.7711C24.3502 11.9807 24.4644 12.257 24.4644 12.5998V21.4002C24.4644 21.743 24.3502 22.0192 24.1216 22.2289C23.893 22.4395 23.6262 22.5448 23.3212 22.5448C23.2031 22.5448 23.0912 22.533 22.9854 22.5094C22.8797 22.4858 22.7772 22.4357 22.678 22.3592Z" fill="#2D0140"/>
</g>
</svg>
