<svg width="34" height="34" viewBox="0 0 34 34" fill="none" xmlns="http://www.w3.org/2000/svg">
<g id="Property 1=CheckmarkCircle2">
<path id="Vector" d="M24.1262 13.5012C24.3197 13.3008 24.4268 13.0324 24.4244 12.7538C24.422 12.4752 24.3102 12.2088 24.1132 12.0118C23.9162 11.8148 23.6498 11.703 23.3712 11.7006C23.0926 11.6982 22.8242 11.8053 22.6238 11.9988L15.4062 19.2164L11.9074 15.7176C11.707 15.524 11.4387 15.4169 11.1601 15.4193C10.8815 15.4218 10.615 15.5335 10.418 15.7305C10.221 15.9275 10.1093 16.194 10.1068 16.4726C10.1044 16.7512 10.2115 17.0195 10.4051 17.2199L14.6551 21.4699C14.8543 21.6691 15.1245 21.781 15.4062 21.781C15.688 21.781 15.9582 21.6691 16.1574 21.4699L24.1262 13.5012ZM17 2.125C8.78475 2.125 2.125 8.78475 2.125 17C2.125 25.2153 8.78475 31.875 17 31.875C25.2153 31.875 31.875 25.2153 31.875 17C31.875 8.78475 25.2153 2.125 17 2.125ZM4.25 17C4.25 9.95881 9.95881 4.25 17 4.25C24.0412 4.25 29.75 9.95881 29.75 17C29.75 24.0412 24.0412 29.75 17 29.75C9.95881 29.75 4.25 24.0412 4.25 17Z" fill="#A305A6"/>
</g>
</svg>
