<svg width="34" height="34" viewBox="0 0 34 34" fill="none" xmlns="http://www.w3.org/2000/svg">
<g id="Property 1=CheckmarkSquare2">
<path id="Vector" d="M10.1996 5.09998C8.84701 5.09998 7.5498 5.6373 6.59336 6.59373C5.63693 7.55017 5.09961 8.84737 5.09961 10.2V23.8C5.09961 25.1526 5.63693 26.4498 6.59336 27.4062C7.5498 28.3627 8.84701 28.9 10.1996 28.9H23.7996C25.1522 28.9 26.4494 28.3627 27.4059 27.4062C28.3623 26.4498 28.8996 25.1526 28.8996 23.8V10.2C28.8996 8.84737 28.3623 7.55017 27.4059 6.59373C26.4494 5.6373 25.1522 5.09998 23.7996 5.09998H10.1996ZM6.79961 10.2C6.79961 9.29824 7.15782 8.43344 7.79545 7.79581C8.43307 7.15819 9.29787 6.79998 10.1996 6.79998H23.7996C24.7013 6.79998 25.5661 7.15819 26.2038 7.79581C26.8414 8.43344 27.1996 9.29824 27.1996 10.2V23.8C27.1996 24.7017 26.8414 25.5665 26.2038 26.2041C25.5661 26.8418 24.7013 27.2 23.7996 27.2H10.1996C9.29787 27.2 8.43307 26.8418 7.79545 26.2041C7.15782 25.5665 6.79961 24.7017 6.79961 23.8V10.2ZM22.7014 14.2018C22.861 14.0422 22.9507 13.8257 22.9507 13.6C22.9507 13.3743 22.861 13.1578 22.7014 12.9982C22.5418 12.8386 22.3253 12.7489 22.0996 12.7489C21.8739 12.7489 21.6574 12.8386 21.4978 12.9982L15.2996 19.1981L12.5014 16.3982C12.4224 16.3191 12.3286 16.2565 12.2253 16.2137C12.122 16.1709 12.0114 16.1489 11.8996 16.1489C11.7878 16.1489 11.6772 16.1709 11.5739 16.2137C11.4707 16.2565 11.3768 16.3191 11.2978 16.3982C11.2188 16.4772 11.1561 16.571 11.1133 16.6743C11.0705 16.7775 11.0485 16.8882 11.0485 17C11.0485 17.1117 11.0705 17.2224 11.1133 17.3257C11.1561 17.4289 11.2188 17.5227 11.2978 17.6018L14.6978 21.0018C14.7768 21.0809 14.8706 21.1437 14.9738 21.1866C15.0771 21.2294 15.1878 21.2515 15.2996 21.2515C15.4114 21.2515 15.5221 21.2294 15.6254 21.1866C15.7287 21.1437 15.8225 21.0809 15.9014 21.0018L22.7014 14.2018Z" fill="#CCCCFF"/>
</g>
</svg>
