<svg width="34" height="34" viewBox="0 0 34 34" fill="none" xmlns="http://www.w3.org/2000/svg">
<g id="Property 1=CheckmarkSquare1">
<path id="Vector" d="M10.1996 5.09998C8.84701 5.09998 7.5498 5.6373 6.59336 6.59373C5.63693 7.55017 5.09961 8.84737 5.09961 10.2V23.8C5.09961 25.1526 5.63693 26.4498 6.59336 27.4062C7.5498 28.3627 8.84701 28.9 10.1996 28.9H23.7996C25.1522 28.9 26.4494 28.3627 27.4059 27.4062C28.3623 26.4498 28.8996 25.1526 28.8996 23.8V10.2C28.8996 8.84737 28.3623 7.55017 27.4059 6.59373C26.4494 5.6373 25.1522 5.09998 23.7996 5.09998H10.1996ZM6.79961 10.2C6.79961 9.29824 7.15782 8.43344 7.79545 7.79581C8.43307 7.15819 9.29787 6.79998 10.1996 6.79998H23.7996C24.7013 6.79998 25.5661 7.15819 26.2038 7.79581C26.8414 8.43344 27.1996 9.29824 27.1996 10.2V23.8C27.1996 24.7017 26.8414 25.5665 26.2038 26.2041C25.5661 26.8418 24.7013 27.2 23.7996 27.2H10.1996C9.29787 27.2 8.43307 26.8418 7.79545 26.2041C7.15782 25.5665 6.79961 24.7017 6.79961 23.8V10.2Z" fill="#B3B3B3"/>
</g>
</svg>
