<svg width="44" height="45" viewBox="0 0 44 45" fill="none" xmlns="http://www.w3.org/2000/svg">
<g id="material-symbols-light:add-circle-rounded">
<path id="vector" d="M21.0833 23.4167V29.8333C21.0833 30.0937 21.1713 30.3112 21.3473 30.486C21.5233 30.6608 21.7415 30.7488 22.0018 30.75C22.2622 30.7512 22.4797 30.6632 22.6545 30.486C22.8293 30.3088 22.9167 30.0912 22.9167 29.8333V23.4167H29.3333C29.5937 23.4167 29.8112 23.3287 29.986 23.1527C30.1608 22.9767 30.2488 22.7585 30.25 22.4982C30.2512 22.2378 30.1632 22.0203 29.986 21.8455C29.8088 21.6707 29.5912 21.5833 29.3333 21.5833H22.9167V15.1667C22.9167 14.9063 22.8287 14.6888 22.6527 14.514C22.4767 14.3392 22.2585 14.2512 21.9982 14.25C21.7378 14.2488 21.5203 14.3368 21.3455 14.514C21.1707 14.6912 21.0833 14.9088 21.0833 15.1667V21.5833H14.6667C14.4063 21.5833 14.1888 21.6713 14.014 21.8473C13.8392 22.0233 13.7512 22.2415 13.75 22.5018C13.7488 22.7622 13.8368 22.9797 14.014 23.1545C14.1912 23.3293 14.4088 23.4167 14.6667 23.4167H21.0833ZM22.0055 39C19.7236 39 17.5786 38.5673 15.5705 37.702C13.5624 36.8354 11.8152 35.6597 10.329 34.1747C8.84278 32.6897 7.66639 30.9443 6.79983 28.9387C5.93328 26.933 5.5 24.7886 5.5 22.5055C5.5 20.2224 5.93328 18.0774 6.79983 16.0705C7.66517 14.0624 8.83911 12.3152 10.3217 10.829C11.8042 9.34278 13.5502 8.16639 15.5595 7.29983C17.5688 6.43328 19.7138 6 21.9945 6C24.2752 6 26.4202 6.43328 28.4295 7.29983C30.4376 8.16517 32.1848 9.33972 33.671 10.8235C35.1572 12.3073 36.3336 14.0532 37.2002 16.0613C38.0667 18.0694 38.5 20.2138 38.5 22.4945C38.5 24.7752 38.0673 26.9202 37.202 28.9295C36.3367 30.9388 35.1609 32.686 33.6747 34.171C32.1884 35.656 30.4431 36.8324 28.4387 37.7002C26.4342 38.5679 24.2898 39.0012 22.0055 39Z" fill="#CCCCFF"/>
</g>
</svg>
