<svg width="106" height="18" viewBox="0 0 106 18" fill="none" xmlns="http://www.w3.org/2000/svg">
<path id="Vector" d="M4.8348 0.542914H0V17.4064H4.80954C7.36141 17.4064 9.20689 16.8019 10.8259 15.4608C12.7467 13.8677 13.8858 11.4655 13.8858 8.98275C13.8858 4.00406 10.1665 0.542914 4.8348 0.542914ZM8.67978 13.2085C7.64028 14.1463 6.30182 14.5517 4.17479 14.5517H3.29118V3.3985H4.17479C6.30182 3.3985 7.58894 3.77819 8.67978 4.76325C9.81742 5.7748 10.4959 7.3412 10.4959 8.95873C10.4959 10.5798 9.81742 12.2008 8.67978 13.2085ZM15.4042 17.4064H18.6902V0.542914H15.4046L15.4042 17.4064ZM26.7346 7.01161C24.7597 6.27996 24.1786 5.79737 24.1786 4.89036C24.1786 3.82746 25.2133 3.01901 26.6317 3.01901C27.6178 3.01901 28.4268 3.42334 29.2891 4.38127L31.0064 2.13436C29.5904 0.892797 27.8966 0.261559 26.0489 0.261559C23.068 0.261559 20.7905 2.33601 20.7905 5.08953C20.7905 7.4178 21.8517 8.60513 24.9377 9.72061C26.228 10.1734 26.8838 10.4754 27.2134 10.6819C27.8708 11.1119 28.201 11.7166 28.201 12.424C28.201 13.7917 27.1126 14.8016 25.6439 14.8016C24.0759 14.8016 22.813 14.0186 22.054 12.5522L19.9323 14.6026C21.4466 16.8247 23.2676 17.8141 25.7735 17.8141C29.1871 17.8141 31.5878 15.5353 31.5878 12.2743C31.5878 9.59349 30.4781 8.37884 26.7346 7.01161ZM32.6242 8.98296C32.6242 13.9445 36.5197 17.787 41.5278 17.787C42.9437 17.787 44.1573 17.5071 45.6508 16.8017V12.9308C44.3341 14.2471 43.1706 14.7767 41.6779 14.7767C38.3662 14.7767 36.0129 12.3739 36.0129 8.95873C36.0129 5.72366 38.4397 3.16931 41.5278 3.16931C43.0931 3.16931 44.2836 3.72519 45.6508 5.0653V1.19486C44.2095 0.464035 43.019 0.162598 41.6029 0.162598C36.6203 0.162598 32.6242 4.08273 32.6242 8.98296ZM72.3021 11.8706L67.8007 0.542914H64.2095L71.3686 17.8373H73.1373L80.4213 0.542707H76.8568L72.3021 11.8706ZM81.9167 17.4066H91.2465V14.5517H85.2035V9.99679H91.0153V7.14141H85.2035V3.39829H91.2465V0.543121H81.9165L81.9167 17.4066ZM104.267 5.51974C104.267 2.36065 102.095 0.542914 98.2993 0.542914H93.4181V17.4064H96.7089V10.6289H97.1395L101.689 17.4064H105.735L100.421 10.3032C102.903 9.79556 104.267 8.10059 104.267 5.51974ZM97.666 8.30472H96.7089V3.19478H97.7185C99.7713 3.19478 100.883 4.05706 100.883 5.6982C100.883 7.39109 99.7713 8.30472 97.666 8.30472Z" fill="black"/>
</svg>
