<svg width="44" height="44" viewBox="0 0 44 44" fill="none" xmlns="http://www.w3.org/2000/svg">
<g id="property-1=Heart">
<path id="vector" d="M21.9633 35.0059C21.6077 35.0059 21.2551 34.9411 20.9055 34.8116C20.5559 34.6832 20.2486 34.4858 19.9833 34.2194L17.8787 32.3219C14.6153 29.358 11.737 26.4754 9.24367 23.6741C6.74789 20.874 5.5 17.9632 5.5 14.9419C5.5 12.6099 6.292 10.6519 7.876 9.06789C9.46 7.48389 11.418 6.69189 13.75 6.69189C15.0871 6.69189 16.4798 7.02984 17.9282 7.70573C19.3765 8.38162 20.7338 9.65639 22 11.5301C23.2674 9.65639 24.6247 8.38162 26.0718 7.70573C27.5189 7.02984 28.9117 6.69189 30.25 6.69189C32.582 6.69189 34.54 7.48389 36.124 9.06789C37.708 10.6519 38.5 12.6099 38.5 14.9419C38.5 18.0329 37.2014 21.0041 34.6042 23.8556C32.0069 26.707 29.1641 29.5316 26.0755 32.3292L23.9818 34.2194C23.7154 34.4858 23.4019 34.6832 23.0413 34.8116C22.6808 34.9399 22.3221 35.0047 21.9652 35.0059" fill="#660273"/>
</g>
</svg>
