<svg width="25" height="24" viewBox="0 0 25 24" fill="none" xmlns="http://www.w3.org/2000/svg">
<g id="mdi-light:eye">
<path id="Vector" d="M11.7018 18C15.7018 18 19.1618 15.78 20.9418 12.5C19.1618 9.22 15.7018 7 11.7018 7C7.7018 7 4.2418 9.22 2.4618 12.5C4.2418 15.78 7.7018 18 11.7018 18ZM11.7018 6C16.2618 6 20.2018 8.65 22.0618 12.5C20.2018 16.35 16.2618 19 11.7018 19C7.1418 19 3.2018 16.35 1.3418 12.5C3.2018 8.65 7.1418 6 11.7018 6ZM11.7018 8C14.2018 8 16.2018 10 16.2018 12.5C16.2018 15 14.2018 17 11.7018 17C9.2018 17 7.2018 15 7.2018 12.5C7.2018 10 9.2018 8 11.7018 8ZM11.7018 9C10.7735 9 9.8833 9.36875 9.22692 10.0251C8.57055 10.6815 8.2018 11.5717 8.2018 12.5C8.2018 13.4283 8.57055 14.3185 9.22692 14.9749C9.8833 15.6313 10.7735 16 11.7018 16C12.6301 16 13.5203 15.6313 14.1767 14.9749C14.833 14.3185 15.2018 13.4283 15.2018 12.5C15.2018 11.5717 14.833 10.6815 14.1767 10.0251C13.5203 9.36875 12.6301 9 11.7018 9Z" fill="white"/>
</g>
</svg>
