<svg width="54" height="54" viewBox="0 0 54 54" fill="none" xmlns="http://www.w3.org/2000/svg">
<g id="property-1=Home 2">
<path id="vector" d="M11.25 42.75V23.193C11.25 22.617 11.379 22.0718 11.637 21.5573C11.895 21.0428 12.2505 20.619 12.7035 20.286L24.8198 11.1105C25.4543 10.626 26.1788 10.3838 26.9933 10.3838C27.8078 10.3838 28.5368 10.626 29.1803 11.1105L41.2965 20.2838C41.751 20.6168 42.1065 21.0413 42.363 21.5573C42.621 22.0718 42.75 22.617 42.75 23.193V42.75C42.75 43.353 42.5258 43.8788 42.0773 44.3273C41.6288 44.7758 41.103 45 40.5 45H32.886C32.37 45 31.938 44.826 31.59 44.478C31.242 44.1285 31.068 43.6965 31.068 43.182V32.4518C31.068 31.9373 30.894 31.506 30.546 31.158C30.1965 30.8085 29.7645 30.6338 29.25 30.6338H24.75C24.2355 30.6338 23.8043 30.8085 23.4563 31.158C23.1068 31.506 22.932 31.9373 22.932 32.4518V43.1843C22.932 43.6988 22.758 44.13 22.41 44.478C22.062 44.826 21.6308 45 21.1163 45H13.5C12.897 45 12.3712 44.7758 11.9227 44.3273C11.4742 43.8788 11.25 43.353 11.25 42.75Z" fill="#CCCCFF"/>
</g>
</svg>
