<svg width="54" height="55" viewBox="0 0 54 55" fill="none" xmlns="http://www.w3.org/2000/svg">
<g id="material-symbols-light:home-rounded">
<path id="vector" d="M12.9996 21.1889L12.9997 21.1889L13.0054 21.1846L25.1216 12.0091L25.1232 12.0079C25.6687 11.5914 26.286 11.3838 26.9933 11.3838C27.7003 11.3838 28.3232 11.5914 28.8788 12.0095C28.879 12.0096 28.8793 12.0098 28.8795 12.01L40.9947 21.1824L40.9947 21.1825L41.001 21.1871C41.3895 21.4718 41.6935 21.8337 41.9153 22.2799L41.916 22.2814C42.1391 22.7263 42.25 23.1948 42.25 23.693V43.25C42.25 43.713 42.0838 44.1136 41.7237 44.4737C41.3636 44.8339 40.9629 45 40.5 45H32.886C32.4955 45 32.1928 44.8738 31.9436 44.6245C31.6938 44.3733 31.568 44.0703 31.568 43.682V32.9518C31.568 32.3114 31.346 31.7509 30.8996 31.3045C30.4521 30.857 29.8911 30.6338 29.25 30.6338H24.75C24.1093 30.6338 23.5488 30.8568 23.1027 31.3045C22.655 31.7506 22.432 32.3111 22.432 32.9518V43.6843C22.432 44.0729 22.306 44.3749 22.0564 44.6245C21.8069 44.8741 21.5049 45 21.1163 45H13.5C13.0371 45 12.6364 44.8339 12.2763 44.4737C11.9162 44.1136 11.75 43.713 11.75 43.25V23.693C11.75 23.1948 11.8609 22.7263 12.084 22.2814C12.3074 21.8358 12.6119 21.4739 12.9996 21.1889Z" stroke="#CCCCFF"/>
</g>
</svg>
