<svg width="54" height="54" viewBox="0 0 54 54" fill="none" xmlns="http://www.w3.org/2000/svg">
<g id="material-symbols-light:auto-awesome-mosaic">
<path id="vector" d="M24.75 45H12.636C11.5995 45 10.7347 44.6535 10.0417 43.9605C9.34875 43.2675 9.0015 42.402 9 41.364V12.636C9 11.5995 9.34725 10.7347 10.0417 10.0417C10.7362 9.34875 11.601 9.0015 12.636 9H24.75V45ZM29.25 24.75V9H41.3662C42.4012 9 43.2653 9.34725 43.9583 10.0417C44.6513 10.7362 44.9985 11.601 45 12.636V24.75H29.25ZM29.25 45V29.25H45V41.3662C45 42.4012 44.6535 43.2653 43.9605 43.9583C43.2675 44.6513 42.402 44.9985 41.364 45H29.25Z" fill="#CCCCFF"/>
</g>
</svg>
