<svg width="106" height="84" viewBox="0 0 106 84" fill="none" xmlns="http://www.w3.org/2000/svg">
<g id="logos:mastercard" clip-path="url(#clip0_514_8806)">
<path id="Vector" d="M19.2706 82.7898V77.3361C19.2706 75.2451 17.9977 73.882 15.816 73.882C14.7254 73.882 13.5437 74.2456 12.7255 75.4273C12.0895 74.4274 11.1806 73.882 9.81711 73.882C8.90783 73.882 7.99937 74.1545 7.27187 75.1544V74.0638H5.36304V82.7898H7.27187V77.9721C7.27187 76.4273 8.09005 75.6998 9.36288 75.6998C10.6349 75.6998 11.2717 76.518 11.2717 77.9721V82.7898H13.1805V77.9721C13.1805 76.4273 14.089 75.6998 15.2707 75.6998C16.5436 75.6998 17.1796 76.518 17.1796 77.9721V82.7898H19.2706ZM47.539 74.0638H44.4489V71.4279H42.5401V74.0638H40.813V75.7904H42.5396V79.7903C42.5396 81.7902 43.3578 82.9715 45.5395 82.9715C46.3577 82.9715 47.2662 82.6991 47.903 82.3355L47.3573 80.6992C46.8119 81.0627 46.1759 81.1538 45.7213 81.1538C44.8124 81.1538 44.4489 80.6085 44.4489 79.6992V75.7904H47.539V74.0638ZM63.7189 73.8816C62.6283 73.8816 61.9012 74.4274 61.4466 75.1544V74.0638H59.5377V82.7898H61.4466V77.8815C61.4466 76.4273 62.0826 75.6091 63.2643 75.6091C63.6278 75.6091 64.0825 75.7002 64.446 75.7909L64.9914 73.9731C64.6278 73.882 64.0825 73.882 63.7189 73.882M39.2677 74.7913C38.3584 74.1549 37.086 73.8824 35.7225 73.8824C33.5412 73.8824 32.087 74.9731 32.087 76.7001C32.087 78.1547 33.1777 78.9725 35.0865 79.2454L35.9954 79.3365C36.9953 79.5178 37.5407 79.7907 37.5407 80.2453C37.5407 80.8813 36.8136 81.336 35.5407 81.336C34.2679 81.336 33.2684 80.8813 32.6319 80.4271L31.7231 81.8813C32.723 82.6084 34.0866 82.9719 35.4496 82.9719C37.9949 82.9719 39.4495 81.7906 39.4495 80.1542C39.4495 78.609 38.2678 77.7908 36.4496 77.5183L35.5407 77.4272C34.7226 77.3361 34.0866 77.1548 34.0866 76.6095C34.0866 75.9731 34.7226 75.6095 35.7225 75.6095C36.8136 75.6095 37.9042 76.0637 38.4495 76.3366L39.2677 74.7913ZM89.9883 73.8824C88.8972 73.8824 88.1702 74.4278 87.7155 75.1549V74.0642H85.8067V82.7902H87.7155V77.8819C87.7155 76.4277 88.3519 75.6095 89.5332 75.6095C89.8972 75.6095 90.3519 75.7006 90.7154 75.7913L91.2607 73.9735C90.8972 73.8824 90.3519 73.8824 89.9883 73.8824ZM65.6278 78.4272C65.6278 81.0631 67.4455 82.9719 70.2636 82.9719C71.536 82.9719 72.4449 82.6995 73.3538 81.9724L72.4449 80.4271C71.7178 80.9724 70.9907 81.2449 70.1725 81.2449C68.6272 81.2449 67.5366 80.1543 67.5366 78.4272C67.5366 76.7912 68.6272 75.7002 70.1725 75.6095C70.9907 75.6095 71.7178 75.882 72.4449 76.4277L73.3538 74.8824C72.4449 74.1549 71.536 73.8824 70.2636 73.8824C67.4455 73.8824 65.6278 75.7913 65.6278 78.4272ZM83.2619 78.4272V74.0642H81.353V75.1549C80.7166 74.3371 79.8078 73.8824 78.626 73.8824C76.1719 73.8824 74.263 75.7913 74.263 78.4272C74.263 81.0631 76.1719 82.9719 78.626 82.9719C79.8984 82.9719 80.8077 82.5177 81.353 81.6995V82.7902H83.2619V78.4272ZM76.2625 78.4272C76.2625 76.8819 77.2625 75.6095 78.8985 75.6095C80.4437 75.6095 81.5348 76.7912 81.5348 78.4272C81.5348 79.9725 80.4437 81.2449 78.8985 81.2449C77.2625 81.1538 76.2625 79.9725 76.2625 78.4272ZM53.4477 73.8824C50.9025 73.8824 49.0843 75.7002 49.0843 78.4272C49.0843 81.1542 50.902 82.9719 53.5384 82.9719C54.8108 82.9719 56.0836 82.6084 57.0836 81.7906L56.1743 80.4271C55.4472 80.9724 54.5383 81.336 53.6295 81.336C52.4477 81.336 51.266 80.7907 50.9931 79.245H57.4471V78.5183C57.5382 75.7002 55.9023 73.8824 53.4477 73.8824ZM53.4473 75.5184C54.6286 75.5184 55.4472 76.2459 55.6286 77.6094H51.0838C51.2656 76.4277 52.0838 75.5184 53.4473 75.5184ZM100.804 78.4272V70.6101H98.8956V75.1549C98.2592 74.3371 97.3503 73.8824 96.1686 73.8824C93.7145 73.8824 91.8056 75.7913 91.8056 78.4272C91.8056 81.0631 93.7145 82.9719 96.1686 82.9719C97.4414 82.9719 98.3503 82.5177 98.8956 81.6995V82.7902H100.804V78.4272ZM93.8055 78.4272C93.8055 76.8819 94.8051 75.6095 96.4415 75.6095C97.9867 75.6095 99.0774 76.7912 99.0774 78.4272C99.0774 79.9725 97.9867 81.2449 96.4415 81.2449C94.8051 81.1538 93.8055 79.9725 93.8055 78.4272ZM29.9956 78.4272V74.0642H28.0868V75.1549C27.4504 74.3371 26.5415 73.8824 25.3598 73.8824C22.9056 73.8824 20.9968 75.7913 20.9968 78.4272C20.9968 81.0631 22.9056 82.9719 25.3598 82.9719C26.6326 82.9719 27.5415 82.5177 28.0868 81.6995V82.7902H29.9956V78.4272ZM22.9056 78.4272C22.9056 76.8819 23.9056 75.6095 25.5415 75.6095C27.0868 75.6095 28.1779 76.7912 28.1779 78.4272C28.1779 79.9725 27.0868 81.2449 25.5415 81.2449C23.9056 81.1538 22.9056 79.9725 22.9056 78.4272Z" fill="black"/>
<path id="Vector_2" d="M38.6311 7.79956H67.2635V59.2472H38.6311V7.79956Z" fill="#FF5F00"/>
<path id="Vector_3" d="M40.4494 33.5237C40.4494 23.0707 45.3577 13.799 52.9019 7.79968C47.3576 3.4367 40.3587 0.800781 32.7234 0.800781C14.6342 0.800781 0 15.435 0 33.5237C0 51.6125 14.6342 66.2467 32.7229 66.2467C40.3583 66.2467 47.3572 63.6108 52.9019 59.2474C45.3577 53.3391 40.4494 43.9767 40.4494 33.5237Z" fill="#EB001B"/>
<path id="Vector_4" d="M105.895 33.5237C105.895 51.612 91.2606 66.2467 73.1718 66.2467C65.5365 66.2467 58.5376 63.6108 52.9929 59.2474C60.6282 53.2484 65.4458 43.9767 65.4458 33.5237C65.4458 23.0707 60.5371 13.799 52.9929 7.79968C58.5372 3.4367 65.5365 0.800781 73.1718 0.800781C91.2606 0.800781 105.895 15.5261 105.895 33.5237Z" fill="#F79E1B"/>
</g>
<defs>
<clipPath id="clip0_514_8806">
<rect width="106" height="82.3984" fill="white" transform="translate(0 0.800781)"/>
</clipPath>
</defs>
</svg>
