<svg width="34" height="34" viewBox="0 0 34 34" fill="none" xmlns="http://www.w3.org/2000/svg">
<g id="property-1=Forward">
<path id="vector" d="M23.0487 22.831V11.1704C23.0487 10.9692 23.1163 10.8007 23.2513 10.6647C23.3873 10.5287 23.5559 10.4607 23.7571 10.4607C23.9582 10.4607 24.1263 10.5287 24.2614 10.6647C24.3965 10.8007 24.464 10.9688 24.464 11.169V22.8296C24.464 23.0307 24.396 23.1993 24.26 23.3353C24.124 23.4713 23.9559 23.5389 23.7557 23.5379C23.5554 23.537 23.3873 23.4694 23.2513 23.3353C23.1153 23.2012 23.0473 23.0326 23.0473 22.8296M9.53516 21.3987V12.6012C9.53516 12.2575 9.64943 11.9807 9.87799 11.7711C10.1075 11.5614 10.3748 11.4566 10.6798 11.4566C10.7979 11.4566 10.9093 11.4679 11.0142 11.4906C11.119 11.5132 11.2215 11.5633 11.3216 11.6407L17.9261 16.0494C18.1027 16.1722 18.2302 16.3115 18.3086 16.4673C18.387 16.6232 18.4266 16.8007 18.4276 17C18.4285 17.1993 18.3889 17.3768 18.3086 17.5327C18.2302 17.6876 18.1027 17.8269 17.9261 17.9506L11.3216 22.3592C11.2224 22.4348 11.1199 22.4849 11.0142 22.5094C10.9084 22.534 10.7965 22.5458 10.6784 22.5448C10.3734 22.5448 10.1065 22.4395 9.87799 22.2289C9.64943 22.0192 9.53516 21.743 9.53516 21.4002" fill="#2D0140"/>
</g>
</svg>
