<svg width="44" height="44" viewBox="0 0 44 44" fill="none" xmlns="http://www.w3.org/2000/svg">
<g id="property-1=Bell 2">
<path id="vector" d="M9.16687 34.4119V32.5785H12.1295V18.0494C12.1295 15.6538 12.8873 13.5473 14.4029 11.7299C15.9184 9.91241 17.8398 8.78063 20.1669 8.33452V7.33352C20.1669 6.82874 20.3459 6.39669 20.704 6.03735C21.0622 5.67802 21.4942 5.49897 22.0002 5.50019C22.5062 5.50141 22.9383 5.68047 23.2964 6.03735C23.6545 6.39424 23.8335 6.8263 23.8335 7.33352V8.33452C26.1607 8.78063 28.082 9.91302 29.5975 11.7317C31.1131 13.5504 31.8709 15.6569 31.8709 18.0512V32.5767H34.8335V34.41L9.16687 34.4119ZM22.0002 39.206C21.1801 39.206 20.4816 38.917 19.9047 38.3389C19.3278 37.762 19.0394 37.0635 19.0394 36.2434H24.961C24.961 37.0647 24.6726 37.7638 24.0957 38.3407C23.5188 38.9176 22.8203 39.2048 22.0002 39.2024M5.92188 18.0164C5.92188 15.336 6.52015 12.8732 7.71671 10.628C8.91082 8.38158 10.5132 6.5238 12.5237 5.05469L13.5834 6.54335C11.8209 7.84135 10.4099 9.48463 9.35021 11.4732C8.28932 13.4605 7.75887 15.6416 7.75887 18.0164H5.92188ZM36.2452 18.0164C36.2452 15.6416 35.7142 13.4599 34.652 11.4714C33.5912 9.48402 32.1795 7.84135 30.417 6.54335L31.4767 5.05652C33.486 6.52441 35.0884 8.38158 36.2837 10.628C37.479 12.8732 38.0767 15.336 38.0767 18.0164H36.2452Z" fill="#CCCCFF"/>
</g>
</svg>
