<svg width="44" height="44" viewBox="0 0 44 44" fill="none" xmlns="http://www.w3.org/2000/svg">
<g id="material-symbols-light:pause-rounded">
<rect width="44" height="44" rx="22" fill="#CCCCFF"/>
<path id="vector" d="M25.8182 31C25.4771 31 25.1797 30.8588 24.926 30.5764C24.6723 30.294 24.5455 29.963 24.5455 29.5833V15.4167C24.5455 15.037 24.6723 14.706 24.926 14.4236C25.1797 14.1412 25.4771 14 25.8182 14H27.7273C28.0684 14 28.3658 14.1412 28.6195 14.4236C28.8732 14.706 29 15.037 29 15.4167V29.5833C29 29.963 28.8732 30.294 28.6195 30.5764C28.3658 30.8588 28.0684 31 27.7273 31H25.8182ZM16.2727 31C15.9316 31 15.6342 30.8588 15.3805 30.5764C15.1268 30.294 15 29.963 15 29.5833V15.4167C15 15.037 15.1268 14.706 15.3805 14.4236C15.6342 14.1412 15.9316 14 16.2727 14H18.1818C18.5229 14 18.8203 14.1412 19.074 14.4236C19.3277 14.706 19.4545 15.037 19.4545 15.4167V29.5833C19.4545 29.963 19.3277 30.294 19.074 30.5764C18.8203 30.8588 18.5229 31 18.1818 31H16.2727Z" fill="#00010D"/>
</g>
</svg>
