<svg width="90" height="106" viewBox="0 0 90 106" fill="none" xmlns="http://www.w3.org/2000/svg">
<g id="logos:paypal" clip-path="url(#clip0_514_8820)">
<path id="Vector" d="M76.2973 8.25077C71.4066 2.67629 62.5658 0.286377 51.2557 0.286377H18.4308C17.3117 0.286204 16.2293 0.685355 15.3783 1.41203C14.5272 2.13871 13.9634 3.14521 13.7882 4.2505L0.120551 90.9343C-0.151118 92.6436 1.17248 94.1915 2.90498 94.1915H23.1699L28.2593 61.9103L28.1014 62.9211C28.464 60.6393 30.4155 58.9563 32.7264 58.9563H42.3563C61.2741 58.9563 76.0871 51.2724 80.4141 29.0443C80.5426 28.3869 80.6539 27.747 80.75 27.1219C80.2039 26.8327 80.2039 26.8327 80.75 27.1219C82.0385 18.9062 80.7413 13.3138 76.2973 8.25077Z" fill="#27346A"/>
<path id="Vector_2" d="M36.0135 24.1623C36.5674 23.8981 37.1734 23.7614 37.7871 23.7622H63.5212C66.5685 23.7622 69.4109 23.9605 72.0082 24.3786C72.735 24.4945 73.458 24.6329 74.1763 24.7934C75.1943 25.0181 76.2005 25.293 77.1913 25.6172C78.4682 26.0437 79.6574 26.5403 80.7504 27.1219C82.0385 18.9031 80.7413 13.3138 76.2973 8.25077C71.4038 2.67629 62.5658 0.286377 51.2557 0.286377H18.428C16.1167 0.286377 14.1505 1.96904 13.7882 4.2505L0.120553 90.9311C-0.151116 92.6433 1.17248 94.189 2.90218 94.189H23.1699L33.7289 27.23C33.8328 26.5719 34.095 25.9489 34.493 25.4145C34.8909 24.8801 35.4127 24.4504 36.0135 24.1623Z" fill="#27346A"/>
<path id="Vector_3" d="M80.4143 29.0445C76.0872 51.2694 61.2746 58.9565 42.3564 58.9565H32.7237C30.4128 58.9565 28.4609 60.6395 28.1019 62.9213L21.7703 103.059C21.5337 104.555 22.6906 105.911 24.2041 105.911H41.2869C42.2655 105.91 43.2118 105.561 43.9558 104.925C44.6998 104.29 45.1925 103.409 45.3455 102.443L45.5118 101.572L48.7315 81.167L48.9389 80.0392C49.0918 79.0728 49.5845 78.1925 50.3284 77.5569C51.0723 76.9212 52.0186 76.5718 52.9971 76.5714H55.5537C72.102 76.5714 85.0597 69.8485 88.8462 50.4049C90.4267 42.2794 89.6089 35.4954 85.4278 30.7303C84.1597 29.287 82.5848 28.095 80.7502 27.1221C80.6508 27.7503 80.5431 28.387 80.4143 29.0445Z" fill="#2790C3"/>
<path id="Vector_4" d="M76.2216 25.3165C75.5469 25.1195 74.8658 24.9451 74.1795 24.7935C73.4609 24.6356 72.7379 24.4981 72.0114 24.3815C69.4113 23.9606 66.571 23.762 63.5209 23.762H37.7899C37.1759 23.7609 36.5696 23.8988 36.0163 24.1653C35.4148 24.4523 34.8923 24.8817 34.4941 25.4163C34.096 25.9508 33.8342 26.5744 33.7314 27.2329L28.2622 61.9104L28.1042 62.9212C28.464 60.6394 30.4155 58.9564 32.7268 58.9564H42.3595C61.2773 58.9564 76.09 51.2725 80.417 29.0444C80.5458 28.387 80.6539 27.75 80.7533 27.122C79.6577 26.5441 78.4713 26.0434 77.1942 25.6201C76.8719 25.5133 76.5478 25.412 76.2219 25.3165" fill="#1F264F"/>
</g>
<defs>
<clipPath id="clip0_514_8820">
<rect width="89.8543" height="106" fill="white" transform="translate(0.072876)"/>
</clipPath>
</defs>
</svg>
