<svg width="34" height="34" viewBox="0 0 34 34" fill="none" xmlns="http://www.w3.org/2000/svg">
<g id="material-symbols-light:play-arrow-rounded">
<rect width="34" height="34" rx="17" fill="#CCCCFF"/>
<path id="vector" d="M12.75 22.2615V11.7399C12.75 11.3924 12.8652 11.1147 13.0957 10.9069C13.3252 10.6992 13.5934 10.5953 13.9003 10.5953C13.9967 10.5953 14.0972 10.6085 14.2021 10.6349C14.306 10.6604 14.4056 10.6996 14.501 10.7525L22.7786 16.0409C22.9543 16.1637 23.0865 16.3044 23.1752 16.4631C23.2631 16.6208 23.307 16.7998 23.307 17C23.307 17.2002 23.2631 17.3792 23.1752 17.5369C23.0874 17.6947 22.9552 17.8354 22.7786 17.9591L14.501 23.2475C14.4056 23.2995 14.305 23.3387 14.1992 23.3651C14.0935 23.3916 13.9929 23.4048 13.8975 23.4048C13.5896 23.4048 13.3214 23.3009 13.0928 23.0931C12.8643 22.8853 12.75 22.6081 12.75 22.2615Z" fill="#00010D"/>
</g>
</svg>
