<svg width="24" height="24" viewBox="0 0 24 24" fill="none" xmlns="http://www.w3.org/2000/svg">
<g id="property-1=Repeat 2">
<path id="vector" d="M5.9271 18.192L7.6621 19.927C7.75944 20.0243 7.81044 20.139 7.8151 20.271C7.8191 20.403 7.7681 20.524 7.6621 20.634C7.55143 20.7447 7.43243 20.801 7.3051 20.803C7.17777 20.805 7.05877 20.751 6.9481 20.641L4.5661 18.258C4.47877 18.1707 4.41743 18.0813 4.3821 17.99C4.34677 17.8993 4.3291 17.8 4.3291 17.692C4.3291 17.584 4.34677 17.4847 4.3821 17.394C4.41743 17.3033 4.47877 17.2143 4.5661 17.127L6.9481 14.744C7.04543 14.6467 7.1611 14.5957 7.2951 14.591C7.4291 14.5863 7.55143 14.6393 7.6621 14.75C7.76877 14.86 7.82277 14.978 7.8241 15.104C7.82543 15.23 7.77144 15.348 7.6621 15.458L5.9271 17.192H16.6921C16.8721 17.192 17.0198 17.1343 17.1351 17.019C17.2504 16.9037 17.3081 16.7563 17.3081 16.577V13.692C17.3081 13.55 17.3558 13.4313 17.4511 13.336C17.5464 13.2407 17.6654 13.1927 17.8081 13.192C17.9508 13.1913 18.0698 13.2393 18.1651 13.336C18.2604 13.4327 18.3081 13.5513 18.3081 13.692V16.577C18.3081 17.0243 18.1508 17.4053 17.8361 17.72C17.5214 18.0347 17.1401 18.192 16.6921 18.192H5.9271ZM18.0731 6.80801H7.3081C7.1281 6.80801 6.98077 6.86568 6.8661 6.98101C6.7501 7.09635 6.6921 7.24368 6.6921 7.42301V10.308C6.6921 10.45 6.64443 10.569 6.5491 10.665C6.45377 10.761 6.33477 10.8087 6.1921 10.808C6.04943 10.8073 5.93077 10.7597 5.8361 10.665C5.74143 10.5703 5.69343 10.4513 5.6921 10.308V7.42301C5.6921 6.97568 5.84943 6.59468 6.1641 6.28001C6.47877 5.96535 6.8601 5.80801 7.3081 5.80801H18.0731L16.3391 4.07301C16.2411 3.97568 16.1901 3.86101 16.1861 3.72901C16.1821 3.59701 16.2331 3.47601 16.3391 3.36601C16.4491 3.25535 16.5678 3.19901 16.6951 3.19701C16.8231 3.19501 16.9421 3.24935 17.0521 3.36001L19.4351 5.74201C19.5218 5.82935 19.5828 5.91868 19.6181 6.01001C19.6534 6.10068 19.6711 6.20001 19.6711 6.30801C19.6711 6.41601 19.6534 6.51535 19.6181 6.60601C19.5834 6.69668 19.5224 6.78568 19.4351 6.87301L17.0521 9.25601C16.9548 9.35335 16.8391 9.40435 16.7051 9.40901C16.5711 9.41368 16.4491 9.36068 16.3391 9.25001C16.2324 9.14001 16.1781 9.02201 16.1761 8.89601C16.1741 8.77001 16.2284 8.65201 16.3391 8.54201L18.0731 6.80801Z" fill="#2D0140"/>
</g>
</svg>
