<svg width="21" height="18" viewBox="0 0 21 18" fill="none" xmlns="http://www.w3.org/2000/svg">
<path id="Vector" d="M1.68003 0.71L2.39003 0L19.14 16.75L18.43 17.46L15.09 14.11C13.72 14.68 12.22 15 10.64 15C6.08003 15 2.14003 12.35 0.280029 8.5C1.25003 6.5 2.77003 4.83 4.64003 3.68L1.68003 0.71ZM10.64 14C11.93 14 13.17 13.77 14.31 13.34L13.19 12.21C12.46 12.71 11.59 13 10.64 13C8.14003 13 6.14003 11 6.14003 8.5C6.14003 7.55 6.43003 6.68 6.93003 5.95L5.38003 4.41C3.70567 5.38547 2.3295 6.79968 1.40003 8.5C3.18003 11.78 6.64003 14 10.64 14ZM19.88 8.5C18.1 5.22 14.64 3 10.64 3C9.49003 3 8.37003 3.19 7.33003 3.53L6.55003 2.75C7.82003 2.26 9.20003 2 10.64 2C15.2 2 19.14 4.65 21 8.5C20.0913 10.3858 18.6838 11.987 16.93 13.13L16.21 12.4C17.74 11.44 19.01 10.1 19.88 8.5ZM10.64 4C13.14 4 15.14 6 15.14 8.5C15.14 9.32 14.92 10.08 14.54 10.74L13.8 10C14.02 9.54 14.14 9.04 14.14 8.5C14.14 7.57174 13.7713 6.6815 13.1149 6.02513C12.4585 5.36875 11.5683 5 10.64 5C10.1 5 9.60003 5.12 9.14003 5.34L8.40003 4.6C9.06003 4.22 9.82003 4 10.64 4ZM7.14003 8.5C7.14003 9.42826 7.50878 10.3185 8.16516 10.9749C8.82153 11.6313 9.71177 12 10.64 12C11.31 12 11.93 11.81 12.46 11.5L7.64003 6.68C7.33003 7.21 7.14003 7.83 7.14003 8.5Z" fill="#B3B3B3"/>
</svg>
