<svg width="106" height="36" viewBox="0 0 106 36" fill="none" xmlns="http://www.w3.org/2000/svg">
<path id="Vector" d="M54.8206 11.8281C54.7602 16.5965 59.0702 19.2572 62.3168 20.8394C65.6525 22.4625 66.773 23.5034 66.7597 24.9551C66.7349 27.1766 64.0989 28.1571 61.6324 28.1952C57.329 28.2618 54.8268 27.0333 52.8377 26.1042L51.2874 33.3581C53.2832 34.2778 56.9787 35.0798 60.8109 35.115C69.8064 35.115 75.6915 30.6746 75.7233 23.79C75.7585 15.0524 63.6377 14.5688 63.7205 10.6634C63.7491 9.47914 64.879 8.21542 67.3551 7.89411C68.5808 7.7318 71.9641 7.60758 75.7999 9.37397L77.3055 2.35561C75.2426 1.6045 72.5914 0.885273 69.2905 0.885273C60.8237 0.885273 54.8687 5.38613 54.8206 11.8281ZM91.772 1.4898C90.1294 1.4898 88.7452 2.44794 88.1274 3.91828L75.2778 34.5995H84.2667L86.0554 29.656H97.0397L98.0773 34.5995H106L99.0864 1.4898H91.772ZM93.0295 10.434L95.6236 22.867H88.5191L93.0295 10.434ZM43.9221 1.49022L36.8367 34.5991H45.4024L52.4845 1.48939L43.9221 1.49022ZM31.2505 1.49022L22.3349 24.0256L18.7285 4.864C18.3053 2.72495 16.6341 1.4898 14.7783 1.4898H0.204133L0 2.45126C2.99202 3.10051 6.39147 4.14767 8.45102 5.26812C9.71142 5.95257 10.0708 6.55089 10.4849 8.17733L17.3157 34.5995H26.3675L40.2452 1.4898L31.2505 1.49022Z" fill="url(#paint0_linear_514_8804)"/>
<defs>
<linearGradient id="paint0_linear_514_8804" x1="4873.24" y1="103.78" x2="4972.32" y2="-3411.66" gradientUnits="userSpaceOnUse">
<stop stop-color="#222357"/>
<stop offset="1" stop-color="#254AA5"/>
</linearGradient>
</defs>
</svg>
