<svg width="55" height="55" viewBox="0 0 55 55" fill="none" xmlns="http://www.w3.org/2000/svg">
<g id="&#208;&#155;&#208;&#190;&#208;&#179;&#208;&#190; 3 2" clip-path="url(#clip0_668_762)">
<path id="Vector" d="M40.22 18.55C45.06 0.83 15.22 1.02 17.68 17.85C18.19 21.3 21.18 23.08 24.34 23.85C27.72 24.8 31.34 25.49 34.62 27.21C42.09 30.78 45.22 38.77 39.32 45.29C44.15 38.65 41.06 31.66 33.94 28.61C28.56 25.78 20.29 26.88 16.77 21.02C13.46 14.81 17.29 6.55 23.9 4.56C33.47 1.15 44.61 7.64 40.27 18.56L40.22 18.55Z" fill="white"/>
<path id="Vector_2" d="M15.32 36.41C10.48 54.13 40.32 53.94 37.86 37.11C37.35 33.66 34.36 31.88 31.2 31.11C27.82 30.16 24.2 29.47 20.92 27.75C13.45 24.18 10.32 16.19 16.22 9.67C11.39 16.33 14.48 23.32 21.6 26.41C26.98 29.26 35.25 28.16 38.82 34.02C42.13 40.19 38.3 48.41 31.69 50.41C22.12 53.85 10.98 47.41 15.32 36.41Z" fill="white"/>
<path id="Vector_3" d="M27.5 54.5C42.4117 54.5 54.5 42.4117 54.5 27.5C54.5 12.5883 42.4117 0.5 27.5 0.5C12.5883 0.5 0.5 12.5883 0.5 27.5C0.5 42.4117 12.5883 54.5 27.5 54.5Z" stroke="white" stroke-miterlimit="10"/>
</g>
<defs>
<clipPath id="clip0_668_762">
<rect width="55" height="55" fill="white"/>
</clipPath>
</defs>
</svg>
