<svg width="84" height="84" viewBox="0 0 84 84" fill="none" xmlns="http://www.w3.org/2000/svg">
<g id="Group">
<path id="Vector" d="M37.555 49.7775C37.555 50.7794 37.157 51.7402 36.4486 52.4486C35.7402 53.157 34.7794 53.555 33.7775 53.555C32.7756 53.555 31.8148 53.157 31.1064 52.4486C30.398 51.7402 30 50.7794 30 49.7775C30 48.7756 30.398 47.8148 31.1064 47.1064C31.8148 46.398 32.7756 46 33.7775 46C34.7794 46 35.7402 46.398 36.4486 47.1064C37.157 47.8148 37.555 48.7756 37.555 49.7775Z" stroke="#CCCCFF" stroke-width="2"/>
<path id="Vector_2" d="M80.437 41.7455L80.4267 41.7556C78.5743 43.5666 75.6796 43.4832 73.9393 41.5665L80.437 41.7455ZM80.437 41.7455L80.4462 41.736C80.8763 41.3133 81.2204 40.8091 81.4606 40.2529C81.703 39.692 81.8353 39.0882 81.8509 38.476C81.8666 37.8639 81.7652 37.254 81.552 36.681C81.3392 36.1091 81.0188 35.5842 80.6074 35.1371C80.6065 35.1362 80.6057 35.1353 80.6049 35.1343L51.8182 3.49184C50.0747 1.57472 47.1834 1.49518 45.3315 3.30189C43.4975 5.09094 43.4212 8.02448 45.1488 9.91989L73.9385 41.5656L80.437 41.7455ZM46.5478 1.37113L46.1797 0.442874L46.5478 1.37113C47.2158 1.10629 47.9265 0.981224 48.6396 1.00228C49.3527 1.02333 50.0558 1.19015 50.7087 1.49422C51.3608 1.79792 51.9509 2.23303 52.4442 2.77635C52.4449 2.77711 52.4456 2.77787 52.4463 2.77863L52.5178 2.85838L53.0187 3.41711L53.6952 3.0923C57.6217 1.207 62.0187 0.650161 66.2648 1.49831C70.5114 2.34652 74.3982 4.55835 77.3718 7.82722C80.346 11.0966 82.2551 15.257 82.8227 19.7204C83.3904 24.1839 82.5868 28.7177 80.5289 32.6782L80.2067 33.2981L80.678 33.8138L81.2388 34.4275C81.239 34.4277 81.2391 34.4279 81.2393 34.428C83.3352 36.7299 83.241 40.3647 81.0153 42.5069L81.0104 42.5117C78.8089 44.6599 75.3911 44.563 73.3096 42.278L73.3087 42.277L72.9032 41.8331L72.3814 41.2617L71.6973 41.6235C68.9476 43.0778 65.9354 43.8795 62.8598 43.9465L62.5269 43.9538L62.2648 44.1592L15.0549 81.1581L15.0516 81.1607C13.5377 82.3574 11.6905 83 9.79475 83H9.79457C8.12429 83.0003 6.48607 82.5058 5.07309 81.5711C3.6597 80.6361 2.52922 79.2984 1.81979 77.7122C1.11026 76.1257 0.853072 74.3599 1.08043 72.6243C1.30767 70.8896 2.00878 69.2621 3.09676 67.933C3.09729 67.9323 3.09782 67.9317 3.09835 67.931L41.5585 21.3238L41.7598 21.0798L41.7842 20.7645C42.0322 17.5599 42.9796 14.4572 44.5529 11.6904L44.9047 11.0719L44.4356 10.5369C43.47 9.43535 42.9559 7.9782 43.0134 6.47871C43.071 4.9793 43.695 3.57058 44.7402 2.55359L44.7441 2.54973C45.2664 2.03593 45.8797 1.636 46.5478 1.37113ZM41.7092 28.9565L40.932 28.1024L40.1978 28.9937L5.97866 70.5359C5.97711 70.5377 5.97555 70.5396 5.974 70.5414C5.16512 71.4995 4.7328 72.7284 4.75289 73.9895C4.77302 75.253 5.24608 76.4693 6.08869 77.4006C6.93213 78.3329 8.08699 78.9135 9.33158 79.0188C10.5753 79.124 11.8079 78.746 12.7897 77.9663C12.7905 77.9656 12.7914 77.9649 12.7923 77.9642L54.8553 45.0045L55.7028 44.3404L54.978 43.5442L53.5471 41.9723L53.4246 41.8377L53.2625 41.7549C48.7936 39.472 45.2608 35.592 43.3212 30.8189L43.2541 30.654L43.1343 30.5223L41.7092 28.9565Z" stroke="#CCCCFF" stroke-width="2"/>
</g>
</svg>
