<svg width="104" height="104" viewBox="0 0 104 104" fill="none" xmlns="http://www.w3.org/2000/svg">
<g id="tabler:playlist">
<path id="Vector" d="M73.6667 73.6667C73.6667 75.3739 73.3304 77.0643 72.6771 78.6416C72.0238 80.2188 71.0662 81.6519 69.8591 82.8591C68.6519 84.0662 67.2188 85.0238 65.6416 85.6771C64.0643 86.3304 62.3739 86.6667 60.6667 86.6667C58.9595 86.6667 57.269 86.3304 55.6918 85.6771C54.1146 85.0238 52.6814 84.0662 51.4743 82.8591C50.2671 81.6519 49.3095 80.2188 48.6562 78.6416C48.0029 77.0643 47.6667 75.3739 47.6667 73.6667C47.6667 71.9595 48.0029 70.269 48.6562 68.6918C49.3095 67.1146 50.2671 65.6814 51.4743 64.4743C52.6814 63.2671 54.1146 62.3095 55.6918 61.6562C57.269 61.0029 58.9595 60.6667 60.6667 60.6667C62.3739 60.6667 64.0643 61.0029 65.6416 61.6562C67.2188 62.3095 68.6519 63.2671 69.8591 64.4743C71.0662 65.6814 72.0238 67.1146 72.6771 68.6918C73.3304 70.269 73.6667 71.9595 73.6667 73.6667ZM73.6667 73.6667V17.3333H91M56.3333 21.6667H13M13 39H56.3333M39 56.3333H13" stroke="#CCCCFF" stroke-width="4" stroke-linecap="round" stroke-linejoin="round"/>
</g>
</svg>
