<svg width="84" height="84" viewBox="0 0 84 84" fill="none" xmlns="http://www.w3.org/2000/svg">
<g id="Vector">
<mask id="path-1-inside-1_825_8275" fill="white">
<path d="M14.4612 4.09163C14.6989 3.57748 14.7623 2.99976 14.6416 2.44632C14.5208 1.89288 14.2227 1.394 13.7924 1.02555C13.3622 0.657099 12.8234 0.43924 12.258 0.405103C11.6925 0.370966 11.1314 0.522419 10.66 0.836427L10.6496 0.841627L10.634 0.852026L10.5872 0.883226L10.4312 0.987226L9.90079 1.37723C9.31242 1.82305 8.74006 2.28961 8.18479 2.77603C6.87439 3.92003 5.18439 5.62043 3.98319 7.64843C2.93326 9.329 2.09161 11.131 1.47679 13.0148C0.852791 14.8816 0.400391 16.9044 0.400391 18.5996C0.400391 23.0352 2.04359 26.8156 4.60719 29.1348L4.27439 29.5196C2.81839 31.3084 1.97079 33.6276 1.44039 35.9156C0.400391 40.4396 0.400391 45.8788 0.400391 49.6696V49.7996C0.400391 64.292 2.37119 72.5132 4.53959 77.214C5.63159 79.58 6.79119 81.088 7.79479 82.0344C8.29919 82.5128 8.75679 82.8404 9.13639 83.064C9.35794 83.1972 9.58912 83.3136 9.82799 83.4124C9.82799 83.4124 10.4156 83.5996 10.8004 83.5996C11.1852 83.5996 11.7728 83.4124 11.7728 83.4124C12.0117 83.3136 12.2428 83.1972 12.4644 83.064C12.9476 82.7705 13.3974 82.4252 13.806 82.0344C14.8096 81.0828 15.9692 79.58 17.0612 77.214C19.2296 72.5132 21.2004 64.292 21.2004 49.7996V49.6696C21.2004 45.8736 21.2004 40.4396 20.1604 35.9156C19.63 33.6276 18.7824 31.3084 17.3264 29.5196L16.9936 29.1348C19.5572 26.8156 21.2004 23.0352 21.2004 18.5996C21.2004 14.9752 20.4672 12.4844 19.1412 10.4928C18.5512 9.63751 17.8713 8.84781 17.1132 8.13723L16.2292 7.30523C15.912 7.00883 15.6208 6.73843 15.2412 6.35883C14.4612 5.57883 14.3728 4.95483 14.3728 4.62723C14.3707 4.4449 14.4006 4.26362 14.4612 4.09163ZM16.0004 18.5996C16.0004 24.1636 12.8076 26.3944 10.8108 26.3996H10.8004C8.79839 26.3996 5.60039 24.174 5.60039 18.5996C5.60039 17.7 5.87079 16.2752 6.41159 14.6632C6.90316 13.1409 7.58267 11.6858 8.43439 10.3316C8.88679 9.56723 9.47439 8.82363 10.1088 8.14243C10.4624 8.78029 10.9477 9.41296 11.5648 10.0404C11.9444 10.42 12.4384 10.8776 12.8596 11.2728L13.5044 11.876C14.0504 12.4064 14.4716 12.8692 14.8096 13.384C15.4336 14.3148 16.0004 15.724 16.0004 18.5996ZM6.51039 37.0856C6.95759 35.1408 7.57119 33.7056 8.30439 32.806C8.58959 32.4182 8.96495 32.1057 9.39803 31.8955C9.8311 31.6853 10.3089 31.5837 10.79 31.5996H10.8004C11.8924 31.5996 12.6412 32.0052 13.2964 32.806C14.0296 33.7056 14.6484 35.1408 15.0904 37.0856C15.99 40.9752 16.0004 45.8632 16.0004 49.7996C16.0004 63.9072 14.0712 71.286 12.3396 75.0352C11.7676 76.2676 11.232 77.0892 10.8004 77.6352C10.1839 76.8341 9.66706 75.961 9.26119 75.0352C7.52959 71.286 5.60039 63.9072 5.60039 49.7996C5.60039 45.8632 5.61079 40.9752 6.51039 37.0856ZM36.8004 57.5996C33.0824 57.5996 29.5412 56.8196 26.3484 55.4156C26.4177 53.5644 26.4524 51.6404 26.4524 49.6436C29.6021 51.4497 33.1696 52.3999 36.8004 52.3996V41.9996C36.8004 39.2414 37.8961 36.5961 39.8465 34.6457C41.7969 32.6953 44.4421 31.5996 47.2004 31.5996H57.6004C57.6009 27.9062 56.6179 24.2792 54.7525 21.0914C52.8871 17.9037 50.2065 15.2701 46.9862 13.4615C43.7659 11.6528 40.1221 10.7342 36.4293 10.8001C32.7364 10.866 29.1277 11.914 25.974 13.8364C25.6498 12.0916 25.0569 10.4075 24.2164 8.84443C28.175 6.65494 32.6363 5.53617 37.1596 5.59868C41.6829 5.66118 46.1117 6.90278 50.0082 9.20082C53.9048 11.4988 57.1344 14.7738 59.3778 18.702C61.6213 22.6303 62.801 27.0759 62.8004 31.5996H73.2004C75.9586 31.5996 78.6039 32.6953 80.5543 34.6457C82.5047 36.5961 83.6004 39.2414 83.6004 41.9996V67.9996C83.6004 70.7579 82.5047 73.4032 80.5543 75.3535C78.6039 77.3039 75.9586 78.3996 73.2004 78.3996H47.2004C44.4421 78.3996 41.7969 77.3039 39.8465 75.3535C37.8961 73.4032 36.8004 70.7579 36.8004 67.9996V57.5996ZM62.2804 36.7996C61.2551 41.7934 58.7871 46.3767 55.1823 49.9815C51.5775 53.5863 46.9942 56.0543 42.0004 57.0796V67.9996C42.0004 69.3787 42.5482 70.7014 43.5234 71.6766C44.4986 72.6518 45.8213 73.1996 47.2004 73.1996H73.2004C74.5795 73.1996 75.9022 72.6518 76.8773 71.6766C77.8525 70.7014 78.4004 69.3787 78.4004 67.9996V41.9996C78.4004 40.6205 77.8525 39.2979 76.8773 38.3227C75.9022 37.3475 74.5795 36.7996 73.2004 36.7996H62.2804ZM56.9452 36.7996H47.2004C45.8213 36.7996 44.4986 37.3475 43.5234 38.3227C42.5482 39.2979 42.0004 40.6205 42.0004 41.9996V51.7444C45.5971 50.8109 48.879 48.9333 51.5065 46.3057C54.134 43.6782 56.0117 40.3963 56.9452 36.7996Z"/>
</mask>
<path d="M14.4612 4.09163C14.6989 3.57748 14.7623 2.99976 14.6416 2.44632C14.5208 1.89288 14.2227 1.394 13.7924 1.02555C13.3622 0.657099 12.8234 0.43924 12.258 0.405103C11.6925 0.370966 11.1314 0.522419 10.66 0.836427L10.6496 0.841627L10.634 0.852026L10.5872 0.883226L10.4312 0.987226L9.90079 1.37723C9.31242 1.82305 8.74006 2.28961 8.18479 2.77603C6.87439 3.92003 5.18439 5.62043 3.98319 7.64843C2.93326 9.329 2.09161 11.131 1.47679 13.0148C0.852791 14.8816 0.400391 16.9044 0.400391 18.5996C0.400391 23.0352 2.04359 26.8156 4.60719 29.1348L4.27439 29.5196C2.81839 31.3084 1.97079 33.6276 1.44039 35.9156C0.400391 40.4396 0.400391 45.8788 0.400391 49.6696V49.7996C0.400391 64.292 2.37119 72.5132 4.53959 77.214C5.63159 79.58 6.79119 81.088 7.79479 82.0344C8.29919 82.5128 8.75679 82.8404 9.13639 83.064C9.35794 83.1972 9.58912 83.3136 9.82799 83.4124C9.82799 83.4124 10.4156 83.5996 10.8004 83.5996C11.1852 83.5996 11.7728 83.4124 11.7728 83.4124C12.0117 83.3136 12.2428 83.1972 12.4644 83.064C12.9476 82.7705 13.3974 82.4252 13.806 82.0344C14.8096 81.0828 15.9692 79.58 17.0612 77.214C19.2296 72.5132 21.2004 64.292 21.2004 49.7996V49.6696C21.2004 45.8736 21.2004 40.4396 20.1604 35.9156C19.63 33.6276 18.7824 31.3084 17.3264 29.5196L16.9936 29.1348C19.5572 26.8156 21.2004 23.0352 21.2004 18.5996C21.2004 14.9752 20.4672 12.4844 19.1412 10.4928C18.5512 9.63751 17.8713 8.84781 17.1132 8.13723L16.2292 7.30523C15.912 7.00883 15.6208 6.73843 15.2412 6.35883C14.4612 5.57883 14.3728 4.95483 14.3728 4.62723C14.3707 4.4449 14.4006 4.26362 14.4612 4.09163ZM16.0004 18.5996C16.0004 24.1636 12.8076 26.3944 10.8108 26.3996H10.8004C8.79839 26.3996 5.60039 24.174 5.60039 18.5996C5.60039 17.7 5.87079 16.2752 6.41159 14.6632C6.90316 13.1409 7.58267 11.6858 8.43439 10.3316C8.88679 9.56723 9.47439 8.82363 10.1088 8.14243C10.4624 8.78029 10.9477 9.41296 11.5648 10.0404C11.9444 10.42 12.4384 10.8776 12.8596 11.2728L13.5044 11.876C14.0504 12.4064 14.4716 12.8692 14.8096 13.384C15.4336 14.3148 16.0004 15.724 16.0004 18.5996ZM6.51039 37.0856C6.95759 35.1408 7.57119 33.7056 8.30439 32.806C8.58959 32.4182 8.96495 32.1057 9.39803 31.8955C9.8311 31.6853 10.3089 31.5837 10.79 31.5996H10.8004C11.8924 31.5996 12.6412 32.0052 13.2964 32.806C14.0296 33.7056 14.6484 35.1408 15.0904 37.0856C15.99 40.9752 16.0004 45.8632 16.0004 49.7996C16.0004 63.9072 14.0712 71.286 12.3396 75.0352C11.7676 76.2676 11.232 77.0892 10.8004 77.6352C10.1839 76.8341 9.66706 75.961 9.26119 75.0352C7.52959 71.286 5.60039 63.9072 5.60039 49.7996C5.60039 45.8632 5.61079 40.9752 6.51039 37.0856ZM36.8004 57.5996C33.0824 57.5996 29.5412 56.8196 26.3484 55.4156C26.4177 53.5644 26.4524 51.6404 26.4524 49.6436C29.6021 51.4497 33.1696 52.3999 36.8004 52.3996V41.9996C36.8004 39.2414 37.8961 36.5961 39.8465 34.6457C41.7969 32.6953 44.4421 31.5996 47.2004 31.5996H57.6004C57.6009 27.9062 56.6179 24.2792 54.7525 21.0914C52.8871 17.9037 50.2065 15.2701 46.9862 13.4615C43.7659 11.6528 40.1221 10.7342 36.4293 10.8001C32.7364 10.866 29.1277 11.914 25.974 13.8364C25.6498 12.0916 25.0569 10.4075 24.2164 8.84443C28.175 6.65494 32.6363 5.53617 37.1596 5.59868C41.6829 5.66118 46.1117 6.90278 50.0082 9.20082C53.9048 11.4988 57.1344 14.7738 59.3778 18.702C61.6213 22.6303 62.801 27.0759 62.8004 31.5996H73.2004C75.9586 31.5996 78.6039 32.6953 80.5543 34.6457C82.5047 36.5961 83.6004 39.2414 83.6004 41.9996V67.9996C83.6004 70.7579 82.5047 73.4032 80.5543 75.3535C78.6039 77.3039 75.9586 78.3996 73.2004 78.3996H47.2004C44.4421 78.3996 41.7969 77.3039 39.8465 75.3535C37.8961 73.4032 36.8004 70.7579 36.8004 67.9996V57.5996ZM62.2804 36.7996C61.2551 41.7934 58.7871 46.3767 55.1823 49.9815C51.5775 53.5863 46.9942 56.0543 42.0004 57.0796V67.9996C42.0004 69.3787 42.5482 70.7014 43.5234 71.6766C44.4986 72.6518 45.8213 73.1996 47.2004 73.1996H73.2004C74.5795 73.1996 75.9022 72.6518 76.8773 71.6766C77.8525 70.7014 78.4004 69.3787 78.4004 67.9996V41.9996C78.4004 40.6205 77.8525 39.2979 76.8773 38.3227C75.9022 37.3475 74.5795 36.7996 73.2004 36.7996H62.2804ZM56.9452 36.7996H47.2004C45.8213 36.7996 44.4986 37.3475 43.5234 38.3227C42.5482 39.2979 42.0004 40.6205 42.0004 41.9996V51.7444C45.5971 50.8109 48.879 48.9333 51.5065 46.3057C54.134 43.6782 56.0117 40.3963 56.9452 36.7996Z" stroke="#CCCCFF" stroke-width="4" mask="url(#path-1-inside-1_825_8275)"/>
</g>
</svg>
