<svg width="70" height="70" viewBox="0 0 70 70" fill="none" xmlns="http://www.w3.org/2000/svg">
<path id="Vector" d="M11.0017 69.6667H7.33568C5.33945 69.6667 3.67401 68.9993 2.33934 67.6647C1.00467 66.33 0.335897 64.6631 0.333008 62.664V35C0.333008 30.1929 1.23723 25.6891 3.04567 21.4887C4.85412 17.2882 7.3299 13.6164 10.473 10.4733C13.6161 7.33022 17.2879 4.85444 21.4883 3.04599C25.6888 1.23755 30.1926 0.333328 34.9997 0.333328C39.8068 0.333328 44.3106 1.23755 48.511 3.04599C52.7115 4.85444 56.3832 7.33022 59.5263 10.4733C62.6695 13.6164 65.1452 17.2882 66.9537 21.4887C68.7621 25.6891 69.6663 30.1929 69.6663 35V62.6683C69.6663 64.6617 68.999 66.3257 67.6643 67.6603C66.3297 68.995 64.6628 69.6638 62.6637 69.6667H58.9977C57.0621 69.6667 55.4111 68.9849 54.0447 67.6213C52.6811 66.2578 51.9993 64.6053 51.9993 62.664V50.002C51.9993 48.0636 52.6811 46.4111 54.0447 45.0447C55.4082 43.6782 57.0607 42.9964 59.002 42.9993H65.333V35C65.333 26.55 62.3907 19.3827 56.506 13.498C50.6213 7.61333 43.4526 4.66955 34.9997 4.66666C26.5468 4.66377 19.3795 7.60755 13.4977 13.498C7.6159 19.3884 4.67212 26.5558 4.66634 35V42.9993H11.0017C12.9372 42.9993 14.5882 43.6811 15.9547 45.0447C17.3182 46.4082 18 48.0592 18 49.9977V62.664C18 64.6053 17.3182 66.2578 15.9547 67.6213C14.5911 68.9849 12.9372 69.6667 10.993 69.6667M10.993 47.3327H4.66634V62.6683C4.66634 63.3328 4.94367 63.9438 5.49834 64.5013C6.05301 65.0589 6.66401 65.3362 7.33134 65.3333H10.9973C11.7773 65.3333 12.4172 65.0834 12.917 64.5837C13.4168 64.0839 13.6667 63.4454 13.6667 62.6683V49.9933C13.6667 49.2162 13.4168 48.5778 12.917 48.078C12.4172 47.5782 11.7788 47.3283 11.0017 47.3283M56.3327 49.9977V62.664C56.3327 63.4411 56.5826 64.0796 57.0823 64.5793C57.5821 65.0791 58.222 65.329 59.002 65.329H62.668C63.3325 65.329 63.9435 65.0517 64.501 64.497C65.0586 63.9423 65.3359 63.3299 65.333 62.6597V47.3283H59.002C58.222 47.3283 57.5821 47.5782 57.0823 48.078C56.5826 48.5778 56.3327 49.2177 56.3327 49.9977ZM11.0017 47.3283H13.6667L4.66634 47.3327L11.0017 47.3283Z" fill="#CCCCFF"/>
</svg>
