<svg width="34" height="35" viewBox="0 0 34 35" fill="none" xmlns="http://www.w3.org/2000/svg">
<g id="slider">
<path id="vector" d="M7.08318 27.417H8.63868L23.7942 12.2615L22.2387 10.706L7.08318 25.8615V27.417ZM6.81118 28.8337C6.48723 28.8337 6.21523 28.7241 5.99518 28.505C5.77512 28.2859 5.66557 28.0139 5.66651 27.689V26.2157C5.66651 25.9021 5.7279 25.6037 5.85068 25.3203C5.97345 25.037 6.13826 24.7924 6.34509 24.5865L24.3382 6.57358C24.4827 6.44419 24.6428 6.34408 24.8184 6.27324C24.9941 6.20241 25.1773 6.16699 25.3681 6.16699C25.5589 6.16699 25.743 6.19721 25.9206 6.25766C26.0981 6.3181 26.2634 6.42577 26.4164 6.58066L27.928 8.10216C28.0838 8.25233 28.1906 8.4176 28.2482 8.59799C28.3048 8.77744 28.3332 8.95688 28.3332 9.13633C28.3332 9.32899 28.3011 9.51316 28.2368 9.68883C28.1717 9.86355 28.0687 10.0236 27.928 10.1691L9.91368 28.1551C9.70873 28.361 9.46412 28.5253 9.17984 28.6481C8.89557 28.7709 8.59712 28.8327 8.28451 28.8337H6.81118ZM23.0037 11.4965L22.2387 10.706L23.7942 12.2615L23.0037 11.4965Z" fill="#CCCCFF"/>
</g>
</svg>
