<svg width="34" height="35" viewBox="0 0 34 35" fill="none" xmlns="http://www.w3.org/2000/svg">
<g id="material-symbols-light:logout-rounded">
<path id="Vector" d="M26.0442 28.8337C26.6968 28.8337 27.2412 28.6155 27.6776 28.1792C28.1139 27.7428 28.3326 27.1979 28.3335 26.5443V8.45633C28.3335 7.80371 28.1149 7.25924 27.6776 6.82291C27.2403 6.38658 26.6958 6.16794 26.0442 6.16699H17.6816C17.4795 6.16699 17.3109 6.23452 17.1758 6.36958C17.0408 6.50463 16.9732 6.67321 16.9732 6.87533C16.9732 7.07744 17.0408 7.24602 17.1758 7.38108C17.3109 7.51613 17.4795 7.58366 17.6816 7.58366H26.0442C26.2623 7.58366 26.4626 7.67433 26.6448 7.85566C26.8271 8.03699 26.9178 8.23721 26.9168 8.45633V26.5457C26.9168 26.763 26.8262 26.9627 26.6448 27.145C26.4635 27.3273 26.2637 27.4179 26.0456 27.417H17.6816C17.4795 27.417 17.3109 27.4845 17.1758 27.6196C17.0408 27.7546 16.9732 27.9232 16.9732 28.1253C16.9732 28.3274 17.0408 28.496 17.1758 28.6311C17.3109 28.7661 17.4795 28.8337 17.6816 28.8337H26.0442ZM8.41516 18.2087H20.2698C20.471 18.2087 20.6391 18.1411 20.7742 18.0061C20.9092 17.871 20.9772 17.7024 20.9782 17.5003C20.9791 17.2982 20.9116 17.1296 20.7756 16.9946C20.6396 16.8595 20.471 16.792 20.2698 16.792H8.41516L11.2074 13.9997C11.3406 13.8675 11.4114 13.7079 11.4199 13.5209C11.4294 13.333 11.3585 13.1611 11.2074 13.0052C11.0572 12.8494 10.8906 12.7701 10.7073 12.7672C10.5232 12.7644 10.3532 12.8409 10.1973 12.9967L6.49416 16.6985C6.26561 16.928 6.15133 17.1953 6.15133 17.5003C6.15133 17.8054 6.26608 18.0727 6.49558 18.3022L10.1973 22.0039C10.3352 22.1418 10.4991 22.214 10.6889 22.2207C10.8787 22.2273 11.0516 22.1522 11.2074 21.9954C11.3585 21.8396 11.4327 21.671 11.4298 21.4897C11.427 21.3083 11.3505 21.143 11.2003 20.9938L8.41516 18.2087Z" fill="#CCCCFF"/>
</g>
</svg>
