<svg width="34" height="35" viewBox="0 0 34 35" fill="none" xmlns="http://www.w3.org/2000/svg">
<g id="vertical-container">
<path id="vector" fill-rule="evenodd" clip-rule="evenodd" d="M17.7977 5.03301H16.2026L15.2888 8.68517L14.3722 8.96851C13.8381 9.13309 13.3207 9.34747 12.8267 9.60884L11.9781 10.0579L8.74808 8.11992L7.62041 9.24901L9.55841 12.479L9.10933 13.3262C8.84748 13.8201 8.63262 14.3376 8.46758 14.8718L8.18566 15.7883L4.5335 16.7021V18.2973L8.18566 19.211L8.469 20.1276C8.63239 20.664 8.84583 21.1792 9.10933 21.6732L9.55841 22.5218L7.62041 25.7518L8.7495 26.8794L11.9795 24.9414L12.8267 25.3905C13.3206 25.6531 13.8358 25.867 14.3722 26.0323L15.2888 26.3142L16.2026 29.9663H17.7977L18.7115 26.3142L19.6281 26.0308C20.1622 25.8663 20.6797 25.6519 21.1737 25.3905L22.0222 24.9414L25.2522 26.8794L26.3799 25.7503L24.4419 22.5203L24.891 21.6732C25.1536 21.1792 25.3675 20.664 25.5327 20.1276L25.8147 19.211L29.4668 18.2973V16.7021L25.8147 15.7883L25.5313 14.8718C25.3667 14.3377 25.1524 13.8202 24.891 13.3262L24.4419 12.4776L26.3799 9.24759L25.2508 8.11992L22.0208 10.0579L21.1737 9.60884C20.6797 9.34699 20.1622 9.13213 19.6281 8.96709L18.7115 8.68517L17.7977 5.03301ZM21.9698 8.10717L24.5666 6.54884C24.8373 6.38644 25.1546 6.31914 25.468 6.35764C25.7814 6.39614 26.0729 6.53823 26.2963 6.76134L27.7385 8.20351C27.9616 8.42692 28.1037 8.71846 28.1422 9.03184C28.1807 9.34522 28.1134 9.66249 27.951 9.93326L26.3927 12.53C26.7043 13.1156 26.9593 13.7295 27.1577 14.3717L30.0944 15.1069C30.4008 15.1837 30.6727 15.3606 30.867 15.6095C31.0613 15.8585 31.1668 16.1653 31.1668 16.4811V18.5183C31.1668 18.8341 31.0613 19.1408 30.867 19.3898C30.6727 19.6388 30.4008 19.8157 30.0944 19.8924L27.1577 20.6277C26.9593 21.2699 26.7043 21.8838 26.3927 22.4693L27.951 25.0661C28.1134 25.3369 28.1807 25.6541 28.1422 25.9675C28.1037 26.2809 27.9616 26.5724 27.7385 26.7958L26.2963 28.238C26.0729 28.4611 25.7814 28.6032 25.468 28.6417C25.1546 28.6802 24.8373 28.6129 24.5666 28.4505L21.9698 26.8922C21.3843 27.2038 20.7704 27.4588 20.1282 27.6572L19.3929 30.5939C19.3162 30.9003 19.1393 31.1722 18.8903 31.3665C18.6413 31.5608 18.3346 31.6663 18.0187 31.6663H15.9816C15.6658 31.6663 15.359 31.5608 15.11 31.3665C14.8611 31.1722 14.6842 30.9003 14.6074 30.5939L13.8722 27.6572C13.2356 27.4605 12.619 27.2043 12.0305 26.8922L9.43375 28.4505C9.16298 28.6129 8.84571 28.6802 8.53233 28.6417C8.21895 28.6032 7.92741 28.4611 7.704 28.238L6.26183 26.7958C6.03872 26.5724 5.89663 26.2809 5.85813 25.9675C5.81963 25.6541 5.88693 25.3369 6.04933 25.0661L7.60766 22.4693C7.29549 21.8808 7.03936 21.2642 6.84266 20.6277L3.90591 19.8924C3.5998 19.8157 3.32805 19.639 3.13378 19.3904C2.9395 19.1417 2.83382 18.8352 2.8335 18.5197V16.4825C2.8335 16.1667 2.93904 15.8599 3.13334 15.611C3.32764 15.362 3.59956 15.1851 3.90591 15.1083L6.84266 14.3731C7.041 13.7309 7.296 13.117 7.60766 12.5314L6.04933 9.93467C5.88693 9.6639 5.81963 9.34664 5.85813 9.03326C5.89663 8.71987 6.03872 8.42833 6.26183 8.20492L7.704 6.76134C7.92741 6.53823 8.21895 6.39614 8.53233 6.35764C8.84571 6.31914 9.16298 6.38644 9.43375 6.54884L12.0305 8.10717C12.6161 7.79551 13.2299 7.54051 13.8722 7.34217L14.6074 4.40542C14.6841 4.09931 14.8608 3.82756 15.1095 3.63329C15.3582 3.43901 15.6646 3.33333 15.9802 3.33301H18.0173C18.3331 3.33302 18.6399 3.43855 18.8889 3.63285C19.1378 3.82715 19.3148 4.09908 19.3915 4.40542L20.1267 7.34217C20.769 7.54051 21.3829 7.79551 21.9684 8.10717H21.9698ZM17.0002 21.4663C18.0522 21.4663 19.0611 21.0484 19.805 20.3045C20.5489 19.5606 20.9668 18.5517 20.9668 17.4997C20.9668 16.4476 20.5489 15.4387 19.805 14.6948C19.0611 13.9509 18.0522 13.533 17.0002 13.533C15.9481 13.533 14.9392 13.9509 14.1953 14.6948C13.4514 15.4387 13.0335 16.4476 13.0335 17.4997C13.0335 18.5517 13.4514 19.5606 14.1953 20.3045C14.9392 21.0484 15.9481 21.4663 17.0002 21.4663ZM17.0002 23.1663C15.4973 23.1663 14.0559 22.5693 12.9932 21.5066C11.9305 20.4439 11.3335 19.0026 11.3335 17.4997C11.3335 15.9968 11.9305 14.5554 12.9932 13.4927C14.0559 12.43 15.4973 11.833 17.0002 11.833C18.5031 11.833 19.9444 12.43 21.0071 13.4927C22.0698 14.5554 22.6668 15.9968 22.6668 17.4997C22.6668 19.0026 22.0698 20.4439 21.0071 21.5066C19.9444 22.5693 18.5031 23.1663 17.0002 23.1663Z" fill="#CCCCFF"/>
</g>
</svg>
