<svg width="34" height="35" viewBox="0 0 34 35" fill="none" xmlns="http://www.w3.org/2000/svg">
<g id="material-symbols-light:headphones-rounded">
<path id="Vector" d="M9.15434 28.8337H7.95584C7.30323 28.8337 6.75875 28.6155 6.32242 28.1792C5.88609 27.7428 5.66745 27.1979 5.6665 26.5443V17.5003C5.6665 15.9278 5.96211 14.455 6.55334 13.0817C7.14456 11.7085 7.95395 10.5086 8.9815 9.48199C10.0091 8.45538 11.2085 7.64599 12.5798 7.05383C13.9512 6.46166 15.4245 6.16605 16.9998 6.16699C18.5752 6.16794 20.0485 6.46355 21.4198 7.05383C22.7912 7.64411 23.9906 8.45349 25.0182 9.48199C26.0457 10.5105 26.8546 11.7104 27.4449 13.0817C28.0352 14.4531 28.3313 15.9259 28.3332 17.5003V26.5457C28.3332 27.1974 28.115 27.7414 27.6787 28.1777C27.2423 28.6141 26.6974 28.8327 26.0438 28.8337H24.8453C24.2163 28.8337 23.678 28.6094 23.2303 28.1607C22.7827 27.7121 22.5584 27.1738 22.5574 26.5457V22.402C22.5574 21.773 22.7817 21.2347 23.2303 20.787C23.679 20.3393 24.2173 20.115 24.8453 20.1141H26.9165V17.5003C26.9165 14.7378 25.9546 12.3947 24.0308 10.4708C22.1069 8.54699 19.7633 7.58461 16.9998 7.58366C14.2364 7.58272 11.8932 8.54511 9.97034 10.4708C8.04745 12.3966 7.08506 14.7397 7.08317 17.5003V20.1155H9.15434C9.78334 20.1155 10.3217 20.3398 10.7693 20.7884C11.217 21.237 11.4413 21.7754 11.4423 22.4034V26.5457C11.4423 27.1747 11.2179 27.7131 10.7693 28.1607C10.3207 28.6084 9.78145 28.8327 9.15434 28.8337Z" fill="#CCCCFF"/>
</g>
</svg>
